<svg width="1350px" height="395px" viewBox="0 0 1350 395" version="1.1" xmlns="http://www.w3.org/2000/svg" xmlns:xlink="http://www.w3.org/1999/xlink">
    <g id="MONOGRAMME_NOIR_RGB" stroke="none" stroke-width="1" fill="none" fill-rule="evenodd">
        <polyline id="Fill-2" fill="currentColor" points="1042.31 8.113 1090.69 8.113 1090.69 168.769 1299.73 168.769 1299.73 8.113 1349.16 8.113 1349.16 385.694 1299.73 385.694 1299.73 211.628 1090.69 211.628 1090.69 385.694 1042.31 385.694 1042.31 8.113"></polyline>
        <path d="M236.698,114.666 L286.871,114.666 C284.148,53.584 233.969,0.137 148.892,0.137 C70.896,0.137 13.632,42.131 13.632,105.392 C13.632,239.014 249.24,188.295 249.24,285.919 C249.24,322.461 214.881,351.364 154.889,351.364 C91.078,351.364 52.353,327.368 50.174,263.558 L0,263.558 C1.09,348.095 56.175,395 152.16,395 C241.604,395 298.328,344.822 298.328,282.106 C298.328,141.934 61.082,198.658 61.082,101.034 C61.082,68.309 92.717,43.765 146.708,43.765 C200.156,43.765 235.063,71.582 236.698,114.666" id="Fill-3" fill="currentColor"></path>
        <path d="M520.073,179.608 L398.477,179.608 L398.477,51.473 L520.073,51.473 C570.24,51.473 596.957,74.922 596.957,115.268 C596.957,155.618 570.24,179.608 520.073,179.608 Z M518.439,7.85 L349.404,7.85 L349.404,386.81 L398.477,386.81 L398.477,223.235 L518.439,223.235 C599.136,223.78 647.119,182.34 647.119,115.813 C647.119,49.294 599.136,7.85 518.439,7.85 L518.439,7.85 Z" id="Fill-5" fill="currentColor"></path>
        <path d="M863.965,179.608 L742.37,179.608 L742.37,51.473 L863.965,51.473 C914.132,51.473 940.849,74.922 940.849,115.268 C940.849,155.618 914.132,179.608 863.965,179.608 Z M862.332,7.85 L693.297,7.85 L693.297,386.81 L742.37,386.81 L742.37,223.235 L862.332,223.235 C943.028,223.78 991.012,182.34 991.012,115.813 C991.012,49.294 943.028,7.85 862.332,7.85 L862.332,7.85 Z" id="Fill-6" fill="currentColor"></path>
    </g>
</svg>
