<svg width="1388px" height="128px" viewBox="0 0 1388 128" version="1.1" xmlns="http://www.w3.org/2000/svg" xmlns:xlink="http://www.w3.org/1999/xlink">
    <g id="Page-1" stroke="none" stroke-width="1" fill="none" fill-rule="evenodd">
        <path d="M122.528,64.905 L142.158,17.73 L161.947,64.905 L122.528,64.905 Z M768.414,64.905 L788.043,17.73 L807.831,64.905 L768.414,64.905 Z M1339.74,15.038 C1354.3,15.038 1362.06,21.846 1362.06,33.559 C1362.06,45.274 1354.3,52.239 1339.74,52.239 L1309.82,52.239 L1309.82,15.038 L1339.74,15.038 Z M710.316,52.239 L675.013,52.239 L675.013,15.038 L710.316,15.038 C724.88,15.038 732.637,21.846 732.637,33.559 C732.637,45.274 724.88,52.239 710.316,52.239 L710.316,52.239 Z M994.314,101.314 C970.57,101.314 954.897,83.109 954.897,57.307 C954.897,31.661 970.57,13.297 994.314,13.297 C1018.06,13.297 1033.73,31.661 1033.73,57.307 C1033.73,83.109 1018.06,101.314 994.314,101.314 L994.314,101.314 Z M1309.82,64.905 L1334.2,64.905 C1344.64,64.905 1350.82,69.178 1356.36,81.527 L1369.97,112.237 L1387.7,112.237 C1382.8,105.43 1378.52,97.516 1376.31,91.975 L1369.34,75.036 C1366.33,67.753 1361.43,61.58 1353.04,58.889 C1368.07,55.564 1376.62,46.226 1376.62,32.294 C1376.62,14.405 1362.69,2.373 1339.26,2.373 L1295.57,2.373 L1295.57,112.237 L1309.82,112.237 L1309.82,64.905 Z M263.894,92.133 L222.577,2.373 L203.738,2.373 L203.738,112.237 L217.985,112.237 L217.985,25.645 L257.404,112.237 L270.068,112.237 L309.486,25.486 L309.486,112.237 L323.734,112.237 L323.734,2.373 L305.528,2.373 L263.894,92.133 Z M1218.95,64.588 L1277.21,64.588 L1277.21,51.923 L1218.95,51.923 L1218.95,15.356 L1280.06,15.356 L1280.06,2.373 L1204.7,2.373 L1204.7,112.237 L1282.75,112.237 L1282.75,99.257 L1218.95,99.257 L1218.95,64.588 Z M555.81,2.373 L541.562,2.373 L541.562,112.237 L614.858,112.237 L614.858,99.257 L555.81,99.257 L555.81,2.373 Z M709.841,64.905 C733.269,65.063 747.201,53.032 747.201,33.717 C747.201,14.405 733.269,2.373 709.841,2.373 L660.766,2.373 L660.766,112.395 L675.013,112.395 L675.013,64.905 L709.841,64.905 Z M134.559,2.373 L87.701,112.237 L102.739,112.237 L117.304,77.57 L167.169,77.57 L181.576,112.237 L197.09,112.237 L150.39,2.373 L134.559,2.373 Z M1169.88,112.237 L1184.12,112.237 L1184.12,2.373 L1169.88,2.373 L1169.88,112.237 Z M387.214,101.314 C368.059,101.314 356.978,90.549 356.978,70.288 L356.978,2.373 L342.731,2.373 L342.731,69.812 C342.731,97.673 359.194,114.613 387.214,114.613 C415.234,114.613 431.698,97.673 431.698,69.812 L431.698,2.373 L417.451,2.373 L417.451,70.288 C417.451,90.549 406.37,101.314 387.214,101.314 L387.214,101.314 Z M780.445,2.373 L733.585,112.237 L748.624,112.237 L763.19,77.57 L813.057,77.57 L827.462,112.237 L842.976,112.237 L796.276,2.373 L780.445,2.373 Z M1106.4,101.314 C1087.24,101.314 1076.16,90.549 1076.16,70.288 L1076.16,2.373 L1061.91,2.373 L1061.91,69.812 C1061.91,97.673 1078.38,114.613 1106.4,114.613 C1134.42,114.613 1150.88,97.673 1150.88,69.812 L1150.88,2.373 L1136.63,2.373 L1136.63,70.288 C1136.63,90.549 1125.55,101.314 1106.4,101.314 L1106.4,101.314 Z M464.942,64.588 L523.199,64.588 L523.199,51.923 L464.942,51.923 L464.942,15.356 L526.047,15.356 L526.047,2.373 L450.695,2.373 L450.695,112.237 L528.739,112.237 L528.739,99.257 L464.942,99.257 L464.942,64.588 Z M68.703,33.243 L83.267,33.243 C82.477,15.513 67.912,0 43.217,0 C20.578,0 3.957,12.189 3.957,30.551 C3.957,69.336 72.344,54.615 72.344,82.951 C72.344,93.557 62.372,101.947 44.958,101.947 C26.436,101.947 15.196,94.982 14.563,76.46 L0,76.46 C0.316,100.999 16.305,114.613 44.166,114.613 C70.128,114.613 86.593,100.048 86.593,81.844 C86.593,41.158 17.729,57.623 17.729,29.286 C17.729,19.788 26.912,12.664 42.583,12.664 C58.097,12.664 68.229,20.738 68.703,33.243 L68.703,33.243 Z M994.314,114.613 L994.314,127.119 L1048.46,127.119 L1048.46,114.455 L998.589,114.455 C1027.56,112.395 1048.3,88.809 1048.3,57.307 C1048.3,24.378 1025.5,0 994.314,0 C963.129,0 940.333,24.378 940.333,57.307 C940.333,90.391 963.129,114.613 994.314,114.613 L994.314,114.613 Z M913.58,33.243 L928.144,33.243 C927.352,15.513 912.789,0 888.093,0 C865.454,0 848.833,12.189 848.833,30.551 C848.833,69.336 917.221,54.615 917.221,82.951 C917.221,93.557 907.247,101.947 889.833,101.947 C871.312,101.947 860.073,94.982 859.439,76.46 L844.874,76.46 C845.192,100.999 861.181,114.613 889.042,114.613 C915.003,114.613 931.468,100.048 931.468,81.844 C931.468,41.158 862.605,57.623 862.605,29.286 C862.605,19.788 871.787,12.664 887.459,12.664 C902.974,12.664 913.105,20.738 913.58,33.243 L913.58,33.243 Z" id="Fill-1" fill="currentColor"></path>
    </g>
</svg>
